<svg xmlns="http://www.w3.org/2000/svg" viewBox="0 0 71 71"><defs><style>.cls-1{fill:#231f20;}.cls-2{fill:#fff;}</style></defs><title>Asset 3</title><g id="Layer_2" data-name="Layer 2"><g id="Layer_1-2" data-name="Layer 1"><rect class="cls-1" width="71" height="71"/><path class="cls-2" d="M21.58,13.33h6.33v45.1H21.58Zm4.28,39.08H36.07q5,0,7.74-2.59c1.83-1.72,2.74-4.16,2.74-7.3V29.24a9.55,9.55,0,0,0-2.74-7.3q-2.75-2.6-7.74-2.59H25.86v-6h10a20.9,20.9,0,0,1,9.28,1.89A13.27,13.27,0,0,1,51,20.74a17.82,17.82,0,0,1,2,8.75V42.27A17.82,17.82,0,0,1,51,51a13.21,13.21,0,0,1-5.88,5.52,20.94,20.94,0,0,1-9.29,1.89h-10Z"/></g></g></svg>