<svg xmlns="http://www.w3.org/2000/svg" viewBox="0 0 342.46 71"><defs><style>.cls-1{fill:#231f20;}.cls-2{fill:#fff;}</style></defs><title>Asset 1</title><g id="Layer_2" data-name="Layer 2"><g id="Layer_1-2" data-name="Layer 1"><rect class="cls-1" width="71" height="71"/><path class="cls-2" d="M21.58,13.33h6.33v45.1H21.58Zm4.28,39.08H36.07q5,0,7.74-2.59c1.83-1.72,2.74-4.16,2.74-7.3V29.24a9.55,9.55,0,0,0-2.74-7.3q-2.75-2.6-7.74-2.59H25.86v-6h10a20.9,20.9,0,0,1,9.28,1.89A13.27,13.27,0,0,1,51,20.74a17.82,17.82,0,0,1,2,8.75V42.27A17.82,17.82,0,0,1,51,51a13.21,13.21,0,0,1-5.88,5.52,20.94,20.94,0,0,1-9.29,1.89h-10Z"/><path class="cls-1" d="M86,13.33h6.33v45.1H86Zm3.07,0H115v6H89.07Zm0,19.7h22.49v6H89.07Zm0,19.38H115v6H89.07Z"/><path class="cls-1" d="M130.32,13.33h5.74L158.11,48.2l-.74.8V13.33h6.27V58.4h-5.81l-22-34.34.75-.8V58.4h-6.27Z"/><path class="cls-1" d="M187.76,56.83A14.05,14.05,0,0,1,182.19,51a18.6,18.6,0,0,1-2-8.73V29.49a18.6,18.6,0,0,1,2-8.73,14.11,14.11,0,0,1,5.57-5.83,17.81,17.81,0,0,1,16.63,0A14.11,14.11,0,0,1,210,20.76a18.6,18.6,0,0,1,2,8.73V42.27A18.6,18.6,0,0,1,210,51a14.05,14.05,0,0,1-5.57,5.83,17.74,17.74,0,0,1-16.63,0ZM201,51.41a8.49,8.49,0,0,0,3.29-3.57,11.8,11.8,0,0,0,1.16-5.35V29.27a11.83,11.83,0,0,0-1.16-5.35A8.41,8.41,0,0,0,201,20.36a10.22,10.22,0,0,0-9.83,0,8.41,8.41,0,0,0-3.29,3.56,11.7,11.7,0,0,0-1.16,5.35V42.49a11.68,11.68,0,0,0,1.16,5.35,8.49,8.49,0,0,0,3.29,3.57,10.29,10.29,0,0,0,9.83,0Z"/><path class="cls-1" d="M222.31,13.33h31.82v6H222.31ZM235.06,17h6.33V58.43h-6.33Z"/><path class="cls-1" d="M266.69,13.33H273v45.1h-6.33Zm3.07,0h25.9v6h-25.9Zm0,19.7h22.49v6H269.76Zm0,19.38h25.9v6h-25.9Z"/><path class="cls-1" d="M311,13.33h6.33v45.1H311Zm4.28,39.08H325.5q5,0,7.73-2.59a9.54,9.54,0,0,0,2.75-7.3V29.24a9.56,9.56,0,0,0-2.75-7.3q-2.75-2.6-7.73-2.59H315.29v-6h10a20.82,20.82,0,0,1,9.27,1.89,13.24,13.24,0,0,1,5.87,5.52,17.82,17.82,0,0,1,2,8.75V42.27a17.82,17.82,0,0,1-2,8.75,13.21,13.21,0,0,1-5.88,5.52,21,21,0,0,1-9.29,1.89h-10Z"/></g></g></svg>